HIERARCHY
ROOT Hips
{
	OFFSET -351.999878 -572.954773 89.312325
	CHANNELS 6 Xposition Yposition Zposition Zrotation Yrotation Xrotation
	JOINT Spine
	{
		OFFSET 0.000000 2.080078 8.814247
		CHANNELS 6 Xposition Yposition Zposition Zrotation Yrotation Xrotation
		JOINT Spine1
		{
			OFFSET 0.000000 0.000000 8.844139
			CHANNELS 6 Xposition Yposition Zposition Zrotation Yrotation Xrotation
			JOINT Spine2
			{
				OFFSET 0.000000 0.000000 11.682266
				CHANNELS 6 Xposition Yposition Zposition Zrotation Yrotation Xrotation
				JOINT Spine3
				{
					OFFSET 0.000000 0.000000 11.746696
					CHANNELS 6 Xposition Yposition Zposition Zrotation Yrotation Xrotation
					JOINT Neck
					{
						OFFSET 0.000000 0.000000 17.658264
						CHANNELS 6 Xposition Yposition Zposition Zrotation Yrotation Xrotation
						JOINT Neck1
						{
							OFFSET 0.000000 0.000000 5.101517
							CHANNELS 6 Xposition Yposition Zposition Zrotation Yrotation Xrotation
							JOINT Head
							{
								OFFSET 0.000000 0.000000 5.101517
								CHANNELS 6 Xposition Yposition Zposition Zrotation Yrotation Xrotation
								JOINT HeadEnd
								{
									OFFSET 0.000000 0.000000 11.655090
									CHANNELS 6 Xposition Yposition Zposition Zrotation Yrotation Xrotation
									End Site
									{
										OFFSET 0.000000 0.000000 0.100006
									}
								}
							}
						}
					}
					JOINT RightShoulder
					{
						OFFSET -2.625397 0.000000 11.175217
						CHANNELS 6 Xposition Yposition Zposition Zrotation Yrotation Xrotation
						JOINT RightArm
						{
							OFFSET 0.000000 0.000000 10.434708
							CHANNELS 6 Xposition Yposition Zposition Zrotation Yrotation Xrotation
							JOINT RightForeArm
							{
								OFFSET 0.000000 0.000000 29.628418
								CHANNELS 6 Xposition Yposition Zposition Zrotation Yrotation Xrotation
								JOINT RightHand
								{
									OFFSET 0.000000 0.000000 22.857605
									CHANNELS 6 Xposition Yposition Zposition Zrotation Yrotation Xrotation
									JOINT RightHandThumb1
									{
										OFFSET -2.867310 -2.944275 3.959564
										CHANNELS 6 Xposition Yposition Zposition Zrotation Yrotation Xrotation
										JOINT RightHandThumb2
										{
											OFFSET 0.000000 0.000000 3.350403
											CHANNELS 6 Xposition Yposition Zposition Zrotation Yrotation Xrotation
											JOINT RightHandThumb3
											{
												OFFSET 0.000000 0.000000 3.756516
												CHANNELS 6 Xposition Yposition Zposition Zrotation Yrotation Xrotation
												JOINT RightHandThumb4
												{
													OFFSET 0.000000 0.000000 3.147339
													CHANNELS 6 Xposition Yposition Zposition Zrotation Yrotation Xrotation
													End Site
													{
														OFFSET 0.000000 0.000000 0.100006
													}
												}
											}
										}
									}
									JOINT RightHandIndex1
									{
										OFFSET -0.086761 -2.345276 10.030899
										CHANNELS 6 Xposition Yposition Zposition Zrotation Yrotation Xrotation
										JOINT RightHandIndex2
										{
											OFFSET 0.000000 0.000000 4.061096
											CHANNELS 6 Xposition Yposition Zposition Zrotation Yrotation Xrotation
											JOINT RightHandIndex3
											{
												OFFSET 0.000000 0.000000 3.248871
												CHANNELS 6 Xposition Yposition Zposition Zrotation Yrotation Xrotation
												JOINT RightHandIndex4
												{
													OFFSET 0.000000 0.000000 2.639709
													CHANNELS 6 Xposition Yposition Zposition Zrotation Yrotation Xrotation
													End Site
													{
														OFFSET 0.000000 0.000000 0.100006
													}
												}
											}
										}
									}
									JOINT RightHandMiddle1
									{
										OFFSET 0.104095 -0.006775 9.502945
										CHANNELS 6 Xposition Yposition Zposition Zrotation Yrotation Xrotation
										JOINT RightHandMiddle2
										{
											OFFSET 0.000000 0.000000 4.568726
											CHANNELS 6 Xposition Yposition Zposition Zrotation Yrotation Xrotation
											JOINT RightHandMiddle3
											{
												OFFSET 0.000000 0.000000 3.654984
												CHANNELS 6 Xposition Yposition Zposition Zrotation Yrotation Xrotation
												JOINT RightHandMiddle4
												{
													OFFSET 0.000000 0.000000 2.741241
													CHANNELS 6 Xposition Yposition Zposition Zrotation Yrotation Xrotation
													End Site
													{
														OFFSET 0.000000 0.000000 0.100006
													}
												}
											}
										}
									}
									JOINT RightHandRing1
									{
										OFFSET 0.086761 2.267456 8.921707
										CHANNELS 6 Xposition Yposition Zposition Zrotation Yrotation Xrotation
										JOINT RightHandRing2
										{
											OFFSET 0.000000 0.000000 4.061096
											CHANNELS 6 Xposition Yposition Zposition Zrotation Yrotation Xrotation
											JOINT RightHandRing3
											{
												OFFSET 0.000000 0.000000 3.654984
												CHANNELS 6 Xposition Yposition Zposition Zrotation Yrotation Xrotation
												JOINT RightHandRing4
												{
													OFFSET 0.000000 0.000000 2.741241
													CHANNELS 6 Xposition Yposition Zposition Zrotation Yrotation Xrotation
													End Site
													{
														OFFSET 0.000000 0.000000 0.100006
													}
												}
											}
										}
									}
									JOINT RightHandPinky1
									{
										OFFSET -0.173492 4.467224 7.976990
										CHANNELS 6 Xposition Yposition Zposition Zrotation Yrotation Xrotation
										JOINT RightHandPinky2
										{
											OFFSET 0.000000 0.000000 3.350403
											CHANNELS 6 Xposition Yposition Zposition Zrotation Yrotation Xrotation
											JOINT RightHandPinky3
											{
												OFFSET 0.000000 0.000000 2.842758
												CHANNELS 6 Xposition Yposition Zposition Zrotation Yrotation Xrotation
												JOINT RightHandPinky4
												{
													OFFSET 0.000000 0.000000 2.639709
													CHANNELS 6 Xposition Yposition Zposition Zrotation Yrotation Xrotation
													End Site
													{
														OFFSET 0.000000 0.000000 0.100006
													}
												}
											}
										}
									}
									JOINT RightForeArmEnd
									{
										OFFSET 0.000000 0.000000 0.000000
										CHANNELS 6 Xposition Yposition Zposition Zrotation Yrotation Xrotation
										End Site
										{
											OFFSET 0.000000 0.000000 0.100006
										}
									}
								}
								JOINT RightArmEnd
								{
									OFFSET 0.000000 0.000000 0.000000
									CHANNELS 6 Xposition Yposition Zposition Zrotation Yrotation Xrotation
									End Site
									{
										OFFSET 0.000000 0.000000 0.100006
									}
								}
							}
						}
					}
					JOINT LeftShoulder
					{
						OFFSET 2.625397 0.000000 11.175217
						CHANNELS 6 Xposition Yposition Zposition Zrotation Yrotation Xrotation
						JOINT LeftArm
						{
							OFFSET 0.000000 0.000000 10.813629
							CHANNELS 6 Xposition Yposition Zposition Zrotation Yrotation Xrotation
							JOINT LeftForeArm
							{
								OFFSET 0.000000 0.000000 28.724777
								CHANNELS 6 Xposition Yposition Zposition Zrotation Yrotation Xrotation
								JOINT LeftHand
								{
									OFFSET 0.644379 0.328857 25.716171
									CHANNELS 6 Xposition Yposition Zposition Zrotation Yrotation Xrotation
									JOINT LeftHandThumb1
									{
										OFFSET 2.867310 -2.944275 3.959564
										CHANNELS 6 Xposition Yposition Zposition Zrotation Yrotation Xrotation
										JOINT LeftHandThumb2
										{
											OFFSET 0.000000 0.000000 3.350403
											CHANNELS 6 Xposition Yposition Zposition Zrotation Yrotation Xrotation
											JOINT LeftHandThumb3
											{
												OFFSET 0.000000 0.000000 3.756516
												CHANNELS 6 Xposition Yposition Zposition Zrotation Yrotation Xrotation
												JOINT LeftHandThumb4
												{
													OFFSET 0.000000 0.000000 3.100006
													CHANNELS 6 Xposition Yposition Zposition Zrotation Yrotation Xrotation
													End Site
													{
														OFFSET 0.000000 0.000000 0.100006
													}
												}
											}
										}
									}
									JOINT LeftHandIndex1
									{
										OFFSET 0.086761 -2.345276 10.030899
										CHANNELS 6 Xposition Yposition Zposition Zrotation Yrotation Xrotation
										JOINT LeftHandIndex2
										{
											OFFSET 0.000000 0.000000 4.061096
											CHANNELS 6 Xposition Yposition Zposition Zrotation Yrotation Xrotation
											JOINT LeftHandIndex3
											{
												OFFSET 0.000000 0.000000 3.248871
												CHANNELS 6 Xposition Yposition Zposition Zrotation Yrotation Xrotation
												JOINT LeftHandIndex4
												{
													OFFSET 0.000000 0.000000 2.639709
													CHANNELS 6 Xposition Yposition Zposition Zrotation Yrotation Xrotation
													End Site
													{
														OFFSET 0.000000 0.000000 0.100006
													}
												}
											}
										}
									}
									JOINT LeftHandMiddle1
									{
										OFFSET -0.104095 -0.006775 9.502945
										CHANNELS 6 Xposition Yposition Zposition Zrotation Yrotation Xrotation
										JOINT LeftHandMiddle2
										{
											OFFSET 0.000000 0.000000 4.568726
											CHANNELS 6 Xposition Yposition Zposition Zrotation Yrotation Xrotation
											JOINT LeftHandMiddle3
											{
												OFFSET 0.000000 0.000000 3.654984
												CHANNELS 6 Xposition Yposition Zposition Zrotation Yrotation Xrotation
												JOINT LeftHandMiddle4
												{
													OFFSET 0.000000 0.000000 2.741241
													CHANNELS 6 Xposition Yposition Zposition Zrotation Yrotation Xrotation
													End Site
													{
														OFFSET 0.000000 0.000000 0.100006
													}
												}
											}
										}
									}
									JOINT LeftHandRing1
									{
										OFFSET -0.086761 2.267456 8.921707
										CHANNELS 6 Xposition Yposition Zposition Zrotation Yrotation Xrotation
										JOINT LeftHandRing2
										{
											OFFSET 0.000000 0.000000 4.061096
											CHANNELS 6 Xposition Yposition Zposition Zrotation Yrotation Xrotation
											JOINT LeftHandRing3
											{
												OFFSET 0.000000 0.000000 3.654984
												CHANNELS 6 Xposition Yposition Zposition Zrotation Yrotation Xrotation
												JOINT LeftHandRing4
												{
													OFFSET 0.000000 0.000000 2.741241
													CHANNELS 6 Xposition Yposition Zposition Zrotation Yrotation Xrotation
													End Site
													{
														OFFSET 0.000000 0.000000 0.100006
													}
												}
											}
										}
									}
									JOINT LeftHandPinky1
									{
										OFFSET 0.173492 4.467224 7.976990
										CHANNELS 6 Xposition Yposition Zposition Zrotation Yrotation Xrotation
										JOINT LeftHandPinky2
										{
											OFFSET 0.000000 0.000000 3.350403
											CHANNELS 6 Xposition Yposition Zposition Zrotation Yrotation Xrotation
											JOINT LeftHandPinky3
											{
												OFFSET 0.000000 0.000000 2.842758
												CHANNELS 6 Xposition Yposition Zposition Zrotation Yrotation Xrotation
												JOINT LeftHandPinky4
												{
													OFFSET 0.000000 0.000000 2.639709
													CHANNELS 6 Xposition Yposition Zposition Zrotation Yrotation Xrotation
													End Site
													{
														OFFSET 0.000000 0.000000 0.100006
													}
												}
											}
										}
									}
									JOINT LeftForeArmEnd
									{
										OFFSET 0.000000 0.000000 0.000000
										CHANNELS 6 Xposition Yposition Zposition Zrotation Yrotation Xrotation
										End Site
										{
											OFFSET 0.000000 0.000000 0.100006
										}
									}
								}
								JOINT LeftArmEnd
								{
									OFFSET 0.000000 0.000000 0.000000
									CHANNELS 6 Xposition Yposition Zposition Zrotation Yrotation Xrotation
									End Site
									{
										OFFSET 0.000000 0.000000 0.100006
									}
								}
							}
						}
					}
				}
			}
		}
	}
	JOINT RightUpLeg
	{
		OFFSET -11.289948 0.000000 0.000000
		CHANNELS 6 Xposition Yposition Zposition Zrotation Yrotation Xrotation
		JOINT RightLeg
		{
			OFFSET 0.000000 0.000000 -38.200329
			CHANNELS 6 Xposition Yposition Zposition Zrotation Yrotation Xrotation
			JOINT RightFoot
			{
				OFFSET 0.000000 0.000000 -39.900856
				CHANNELS 6 Xposition Yposition Zposition Zrotation Yrotation Xrotation
				JOINT RightToeBase
				{
					OFFSET 0.000000 -15.261658 0.000002
					CHANNELS 6 Xposition Yposition Zposition Zrotation Yrotation Xrotation
					JOINT RightToeBaseEnd
					{
						OFFSET 0.000000 -7.370728 0.000000
						CHANNELS 6 Xposition Yposition Zposition Zrotation Yrotation Xrotation
						End Site
						{
							OFFSET 0.000000 0.000000 0.100000
						}
					}
				}
				JOINT RightLegEnd
				{
					OFFSET 0.000000 0.000000 0.000000
					CHANNELS 6 Xposition Yposition Zposition Zrotation Yrotation Xrotation
					End Site
					{
						OFFSET 0.000000 0.000000 0.100000
					}
				}
			}
			JOINT RightUpLegEnd
			{
				OFFSET 0.000000 0.000000 0.000000
				CHANNELS 6 Xposition Yposition Zposition Zrotation Yrotation Xrotation
				End Site
				{
					OFFSET 0.000000 0.000000 0.099998
				}
			}
		}
	}
	JOINT LeftUpLeg
	{
		OFFSET 11.315674 0.000000 0.000000
		CHANNELS 6 Xposition Yposition Zposition Zrotation Yrotation Xrotation
		JOINT LeftLeg
		{
			OFFSET 0.000000 0.000000 -38.200329
			CHANNELS 6 Xposition Yposition Zposition Zrotation Yrotation Xrotation
			JOINT LeftFoot
			{
				OFFSET 0.000000 0.000000 -39.900856
				CHANNELS 6 Xposition Yposition Zposition Zrotation Yrotation Xrotation
				JOINT LeftToeBase
				{
					OFFSET 0.000000 -15.261658 0.000002
					CHANNELS 6 Xposition Yposition Zposition Zrotation Yrotation Xrotation
					JOINT LeftToeBaseEnd
					{
						OFFSET 0.000000 -7.539978 0.000000
						CHANNELS 6 Xposition Yposition Zposition Zrotation Yrotation Xrotation
						End Site
						{
							OFFSET 0.000000 0.000000 0.100000
						}
					}
				}
				JOINT LeftLegEnd
				{
					OFFSET 0.000000 0.000000 0.000000
					CHANNELS 6 Xposition Yposition Zposition Zrotation Yrotation Xrotation
					End Site
					{
						OFFSET 0.000000 0.000000 0.100000
					}
				}
			}
			JOINT LeftUpLegEnd
			{
				OFFSET 0.000000 0.000000 0.000000
				CHANNELS 6 Xposition Yposition Zposition Zrotation Yrotation Xrotation
				End Site
				{
					OFFSET 0.000000 0.000000 0.099998
				}
			}
		}
	}
}
MOTION
Frames: 2
Frame Time: 0.016667
-6.029541 -26.506775 86.696419 15.511676 0.423292 -13.466971 0.000011 2.080106 8.814237 0.137390 -2.379895 8.578657 -0.000007 -0.000007 8.844155 -0.062396 -0.843830 4.045500 0.000013 0.000025 11.682274 2.475008 1.188094 9.056411 -0.000013 0.000014 11.746691 1.694261 1.471351 6.969132 -0.000010 -0.000018 17.658239 -1.405018 -10.016589 -3.197051 0.000011 0.000021 5.101515 1.810913 -2.017185 -8.064187 -0.000007 -0.000008 5.101523 -0.474650 -0.617301 -16.467815 -0.000004 0.000004 11.655071 -0.000001 0.000000 0.000000 -2.625369 -0.000014 11.175205 15.206166 -90.448254 0.677277 0.000015 -0.000004 10.434696 -53.070344 -43.810654 54.710491 0.000000 0.000015 29.628399 17.076390 0.852188 17.156974 -0.000034 0.000062 22.857555 17.640203 -9.208629 -2.231151 -2.867306 -2.944275 3.959518 31.576122 -21.623013 45.187442 -0.000023 0.000000 3.350349 -22.400539 10.859978 -38.712734 -0.000023 -0.000008 3.756542 -14.779500 9.199700 -26.373862 0.000008 -0.000012 3.147336 0.000002 0.000001 -0.000001 -0.086761 -2.345252 10.030907 -24.520171 -47.730322 17.093761 -0.000010 0.000012 4.061104 -1.285560 -35.029974 5.653806 -0.000013 -0.000010 3.248875 -1.785560 -35.029981 5.653798 -0.000014 -0.000002 2.639715 0.000001 0.000001 -0.000002 0.104111 -0.006775 9.502922 -16.104939 -46.758263 12.047551 0.000010 0.000061 4.568737 -0.110517 -33.790749 2.009862 -0.000004 0.000009 3.654966 -0.610532 -33.790766 2.009873 -0.000013 -0.000011 2.741249 0.000002 -0.000002 -0.000000 0.086756 2.267460 8.921700 -4.783260 -49.395074 7.709938 0.000015 0.000025 4.061069 -0.244164 -34.649468 -2.422693 0.000002 0.000026 3.654982 0.755821 -34.649447 -2.422683 -0.000013 0.000005 2.741237 -0.000001 0.000002 0.000003 -0.173477 4.467234 7.976982 8.346242 -49.247833 1.959515 -0.000023 0.000017 3.350395 0.147312 -32.977465 -7.245625 0.000004 0.000010 2.842747 2.147316 -32.977461 -7.245641 0.000006 0.000002 2.639709 -0.000000 -0.000001 -0.000002 0.000001 -0.000014 -0.000002 0.000003 -0.000000 0.000000 0.000013 -0.000007 -0.000026 0.000001 0.000002 0.000001 2.625378 0.000017 11.175183 -9.109021 88.174286 -0.281879 -0.000046 0.000023 10.813622 50.710101 35.264762 44.371118 -0.000036 0.000004 28.724752 -5.189921 0.611764 40.918939 0.644372 0.328854 25.716175 11.947527 5.517855 -14.363167 2.867321 -2.944290 3.959564 -31.852649 23.703212 42.324602 0.000008 -0.000046 3.350487 27.020496 -11.066234 -46.082880 -0.000023 0.000000 3.756523 17.852764 -10.075346 -31.394971 -0.000025 -0.000007 3.100006 0.000002 -0.000002 -0.000001 0.086769 -2.345291 10.030941 1.221675 62.097901 -8.005715 -0.000004 -0.000018 4.061131 -2.677679 44.115785 -7.831990 0.000023 -0.000015 3.248882 -3.177660 44.115820 -7.831983 0.000005 -0.000005 2.639708 0.000001 0.000001 -0.000002 -0.104053 -0.006800 9.502939 10.271358 59.437577 4.500164 0.000044 -0.000074 4.568752 -0.555694 42.270302 -2.730466 0.000001 -0.000052 3.654984 -1.055702 42.270262 -2.730470 -0.000028 -0.000009 2.741259 0.000000 0.000003 -0.000000 -0.086754 2.267451 8.921761 25.377298 57.763921 22.633650 -0.000025 0.000023 4.061136 0.244870 42.436662 3.205677 -0.000019 0.000006 3.655029 1.244878 42.436546 3.205716 -0.000042 -0.000014 2.741240 0.000002 -0.000001 0.000001 0.173538 4.467144 7.976959 34.751442 50.303694 34.506577 -0.000053 -0.000009 3.350410 1.296613 39.403997 9.188829 -0.000059 0.000020 2.842804 3.296594 39.404055 9.188814 -0.000073 0.000005 2.639704 -0.000000 0.000002 -0.000003 -0.000022 -0.000007 0.000007 0.000001 -0.000001 0.000000 0.000022 0.000002 0.000006 0.000000 0.000001 0.000000 -11.289917 -0.000006 -0.000010 -9.077108 4.900318 4.354580 0.000040 0.000058 -38.200306 -0.808891 0.442779 28.693949 0.000013 0.000013 -39.900871 -10.355050 -4.830230 10.428609 0.000001 -15.261759 0.000036 1.147911 1.461216 -19.616182 0.000002 -7.370668 -0.000001 0.000000 0.000000 -0.000001 -0.000000 0.000002 -0.000002 -0.000000 -0.000000 -0.000003 0.000030 0.000060 -0.000004 0.000000 -0.000000 0.000000 11.315661 -0.000021 -0.000002 -7.862557 2.270283 1.733163 -0.000019 0.000036 -38.200317 -0.062258 0.036700 30.521981 -0.000004 0.000014 -39.900864 6.642267 -3.435876 8.569417 0.000016 -15.261692 0.000026 -0.349336 -0.050800 -20.269995 -0.000006 -7.539981 0.000000 0.000001 -0.000000 -0.000000 0.000002 0.000055 0.000003 0.000001 0.000000 0.000001 -0.000024 -0.000002 -0.000010 0.000000 -0.000000 0.000001 
-6.005280 -26.445557 86.342789 14.386393 0.063221 -14.059632 0.000007 2.080058 8.814233 0.172788 -2.217784 9.075546 0.000011 -0.000004 8.844145 -0.084608 -0.768978 4.327542 0.000003 -0.000016 11.682277 2.079476 1.329471 9.507653 -0.000010 -0.000022 11.746691 1.485822 1.698965 7.247832 0.000010 -0.000010 17.658253 -0.176847 -9.928733 -4.038826 0.000002 -0.000011 5.101516 3.218569 -2.307718 -8.422787 -0.000033 -0.000004 5.101511 -0.392425 -0.442753 -16.395268 0.000000 0.000000 11.655094 -0.000000 0.000001 -0.000000 -2.625396 -0.000005 11.175228 13.181506 -90.141066 2.535014 0.000031 -0.000010 10.434731 -51.555962 -44.571588 53.049188 0.000002 0.000019 29.628420 18.006185 0.858215 17.289891 0.000000 0.000065 22.857563 18.811739 -8.510847 -2.330467 -2.867329 -2.944275 3.959534 31.560463 -21.436112 45.448410 0.000000 -0.000015 3.350403 -21.982853 10.812371 -38.044369 -0.000011 0.000008 3.756519 -14.504624 9.107006 -25.920597 0.000013 0.000008 3.147321 -0.000001 -0.000001 0.000001 -0.086777 -2.345259 10.030922 -23.588953 -46.352249 16.052073 0.000011 0.000020 4.061119 -1.159384 -33.958123 5.430993 0.000021 0.000016 3.248863 -1.659367 -33.958133 5.430976 0.000002 0.000011 2.639707 0.000000 0.000001 -0.000002 0.104095 -0.006771 9.502960 -15.444987 -45.378001 11.271651 -0.000030 -0.000019 4.568752 -0.068258 -32.763960 1.932828 0.000005 -0.000018 3.654984 -0.568254 -32.763956 1.932837 0.000006 0.000014 2.741234 -0.000001 -0.000001 0.000000 0.086774 2.267436 8.921719 -4.420399 -48.040914 7.385363 -0.000012 -0.000006 4.061089 -0.292099 -33.695283 -2.337349 -0.000002 0.000004 3.654993 0.707899 -33.695239 -2.337352 0.000010 0.000010 2.741235 0.000000 -0.000001 0.000002 -0.173477 4.467207 7.976991 8.359815 -48.058352 2.217543 0.000023 -0.000030 3.350403 0.023905 -32.146087 -7.016351 0.000011 -0.000013 2.842751 2.023906 -32.146070 -7.016345 -0.000010 0.000002 2.639709 -0.000000 -0.000001 -0.000002 0.000007 0.000016 -0.000000 -0.000002 -0.000001 0.000001 0.000000 -0.000012 -0.000000 0.000002 -0.000002 -0.000001 2.625405 0.000021 11.175233 -9.499765 88.333839 -0.316769 -0.000008 0.000004 10.813614 48.767428 35.385653 43.695773 -0.000049 -0.000134 28.724775 -5.458727 0.590434 40.489993 0.644336 0.328892 25.716194 12.104220 5.004810 -14.748998 2.867300 -2.944305 3.959534 -31.788038 23.321995 42.844247 0.000000 -0.000046 3.350479 26.178940 -11.072165 -44.741728 -0.000027 -0.000015 3.756508 17.287808 -9.935973 -30.477643 -0.000006 0.000008 3.099991 -0.000001 -0.000001 -0.000000 0.086746 -2.345285 10.030994 0.834620 60.218165 -8.148984 -0.000021 -0.000010 4.061180 -2.436235 42.812244 -7.481042 -0.000006 0.000021 3.248920 -2.936244 42.812261 -7.481039 -0.000042 -0.000007 2.639746 -0.000000 -0.000000 0.000002 -0.104111 -0.006756 9.503010 9.491719 57.754003 3.831969 -0.000005 -0.000032 4.568747 -0.480236 41.063244 -2.616959 -0.000021 -0.000067 3.654978 -0.980248 41.063299 -2.616984 -0.000033 0.000013 2.741244 -0.000000 -0.000001 -0.000001 -0.086758 2.267464 8.921791 24.172166 56.436251 21.501265 -0.000046 -0.000008 4.061129 0.168268 41.400546 3.091061 -0.000013 -0.000015 3.654959 1.168268 41.400550 3.091039 -0.000038 0.000027 2.741265 -0.000003 -0.000003 -0.000002 0.173500 4.467148 7.977051 33.754102 49.325659 33.513034 -0.000076 0.000024 3.350449 1.130581 38.594605 8.924998 -0.000029 -0.000019 2.842789 3.130571 38.594609 8.925029 0.000003 0.000009 2.639709 -0.000001 0.000002 -0.000000 -0.000020 0.000013 -0.000003 -0.000003 0.000002 0.000002 -0.000004 0.000069 0.000008 -0.000002 0.000001 0.000001 -11.289919 -0.000008 0.000000 -8.309402 5.230820 3.423106 0.000043 0.000037 -38.200306 -0.756103 0.457992 31.202418 -0.000009 -0.000123 -39.900856 -9.868098 -4.874718 9.351738 -0.000003 -15.261739 0.000050 1.131141 1.428876 -19.567701 0.000002 -7.370673 -0.000000 0.000001 0.000000 -0.000000 -0.000002 0.000001 0.000001 -0.000000 -0.000000 -0.000001 0.000033 -0.000003 -0.000001 0.000001 0.000000 -0.000000 11.315678 -0.000001 -0.000008 -7.212258 2.662349 1.645877 0.000004 -0.000019 -38.200310 -0.100319 0.062731 32.018680 0.000018 0.000000 -39.900860 7.348434 -3.277139 7.778321 0.000035 -15.261760 0.000022 -0.343766 -0.037211 -20.242307 0.000002 -7.539982 -0.000001 0.000001 -0.000000 -0.000000 -0.000006 0.000058 0.000001 0.000001 0.000000 -0.000000 0.000005 0.000062 -0.000005 -0.000000 -0.000000 0.000001 
